# xmcd
#
# Track frame offsets:
# 150
# 4970
# 8651
# 11340
# 15538
# 19731
# 24080
# 27227
# 31428
# 33554
# 35103
# 39374
# 43622
# 45812
# 47910
# 52543
# 54628
# 60019
# 62115
# 66334
# 69468
# 70790
# 71827
# 73412
# 79730
# 81569
# 82601
# 85770
# 91016
# 95249
# 99332
# 101487
# 105581
# 106807
# 114855
# 118901
# 122985
# 127002
# 135131
# 139252
# 143212
# 147345
# 151507
# 155539
# 159459
# 163389
# 167278
# 171184
# 174124
# 178471
# 182364
# 190084
# 199442
# 206913
#
# Disc length: 2815 seconds
#
#
# Revision: 0
# Processed by: cddbd v1.5.1PL2 Copyright (c) Steve Scherf et al.
# Submitted via: FreeRIP 2.944 
#
DISCID=cf0afd36
DTITLE=Chas 'N' Dave - Double Bubble [CD2]
DYEAR=2001
DGENRE=Duet
TTITLE0=Come Round And Hear My Gramophone
TTITLE1=Rye House
TTITLE2=I'm Not All There
TTITLE3=Carolina I Hear You Calling
TTITLE4=Anniversary Song
TTITLE5=Hot Meat Pies, Saveloys And Trotters
TTITLE6=Rufus Rastus Johnson Brown
TTITLE7=Billy Muggins
TTITLE8=I'm An Airman
TTITLE9=Black And White Rag
TTITLE10=I Wanna Say Hello
TTITLE11=Auntie Skinner's Chicken Dinners
TTITLE12=Hard Up And Happy
TTITLE13=It's A Windy Night Tonight
TTITLE14=End Of Me Old Cigar
TTITLE15=Eleven More Months And Ten Days More
TTITLE16=How Ya Gonna Keep 'Em Down On The Farm
TTITLE17=While London Sleeps
TTITLE18=Alabamy Bound
TTITLE19=Picking All The Big Ones Out
TTITLE20=What I Want Is A Proper Cup Of Coffee
TTITLE21=Beer Belly Banjos
TTITLE22=The Sideboard Song (Got My Beer In The Sideboard Here)
TTITLE23=Breakfast In Bed
TTITLE24=Sweet Violets
TTITLE25=Slap Bang
TTITLE26=Walla Walla Wallaparoo
TTITLE27=What Happens After The Ball?
TTITLE28=Wait Till The Sun Shines Nellie
TTITLE29=Down Fell The Pony In A Fit
TTITLE30=You Can't Help Laughing Can You
TTITLE31=Come Around And Hear My Gramophone (Reprise)
TTITLE32=Sling Your Hook
TTITLE33=But I Do
TTITLE34=When The Leaves Come Tumbling Down
TTITLE35=Someday
TTITLE36=Near You
TTITLE37=Why Didn't You Tell Me?
TTITLE38=Walking My Baby Back Home
TTITLE39=Black Hills Of Dakota
TTITLE40=You Got Love
TTITLE41=Just A Little Lovin' Early In The Mornin'
TTITLE42=The Clouds Will Soon Roll By
TTITLE43=You're The One Rose
TTITLE44=Whispering
TTITLE45=Every Little While
TTITLE46=I Used To Sigh For The Silvery Moon
TTITLE47=I Wanna Go Back To The Farm
TTITLE48=Down Where The Swanee River Flows
TTITLE49=I'll String Along With You
TTITLE50=My Melancholly Baby
TTITLE51=Halfway To Heaven
TTITLE52=I'm Afraid To Open Your Letter
TTITLE53=Bye Bye Blues
EXTD=
EXTT0=
EXTT1=
EXTT2=
EXTT3=
EXTT4=
EXTT5=
EXTT6=
EXTT7=
EXTT8=
EXTT9=
EXTT10=
EXTT11=
EXTT12=
EXTT13=
EXTT14=
EXTT15=
EXTT16=
EXTT17=
EXTT18=
EXTT19=
EXTT20=
EXTT21=
EXTT22=
EXTT23=
EXTT24=
EXTT25=
EXTT26=
EXTT27=
EXTT28=
EXTT29=
EXTT30=
EXTT31=
EXTT32=
EXTT33=
EXTT34=
EXTT35=
EXTT36=
EXTT37=
EXTT38=
EXTT39=
EXTT40=
EXTT41=
EXTT42=
EXTT43=
EXTT44=
EXTT45=
EXTT46=
EXTT47=
EXTT48=
EXTT49=
EXTT50=
EXTT51=
EXTT52=
EXTT53=
PLAYORDER=
